<?xml version="1.0" encoding="UTF-8"?>
<svg version="1.1" xmlns="http://www.w3.org/2000/svg" width="200" height="197">
<path d="M0 0 C66 0 132 0 200 0 C200 65.01 200 130.02 200 197 C134 197 68 197 0 197 C0 131.99 0 66.98 0 0 Z " fill="#40383A" transform="translate(0,0)"/>
<path d="M0 0 C1.7018042 0.00749268 1.7018042 0.00749268 3.43798828 0.01513672 C12.89514138 0.21039333 20.56448465 1.74059784 29.25 5.5 C30.85681641 6.15162109 30.85681641 6.15162109 32.49609375 6.81640625 C45.44573224 12.60662677 55.89230603 23.06334375 61.31054688 36.18896484 C63.91924805 43.49360467 63.84903033 50.73848611 63.81640625 58.38671875 C63.82165448 59.898833 63.82793531 61.41094397 63.83518982 62.92304993 C63.84552937 66.07231196 63.84112285 69.22112024 63.82641602 72.37036133 C63.80917789 76.38857959 63.8328173 80.40537443 63.86790562 84.42343426 C63.88994411 87.53863335 63.88842375 90.65349455 63.8801403 93.76874733 C63.87932545 95.24980043 63.88609906 96.7308795 63.90091133 98.21185875 C64.02847511 113.26131822 64.02847511 113.26131822 58.25 119.5 C55.9375 121.5 55.9375 121.5 54.25 122.5 C54.7140625 121.3553125 54.7140625 121.3553125 55.1875 120.1875 C56.80068184 116.10709887 57.38620093 113.04923009 57.42700195 108.67431641 C57.43983719 107.47521637 57.45267242 106.27611633 57.46589661 105.04067993 C57.47328354 103.74077118 57.48067047 102.44086243 57.48828125 101.1015625 C57.49235678 100.43652081 57.4964323 99.77147911 57.50063133 99.08628464 C57.52149359 95.557038 57.53578703 92.0278301 57.54516602 88.49853516 C57.55615028 84.88662671 57.59045468 81.27534809 57.63033772 77.66366005 C57.65675399 74.85972108 57.66488033 72.05592541 57.66844749 69.25187302 C57.67557295 67.28408709 57.70191563 65.31640008 57.72883606 63.3487854 C57.69890628 50.75901291 55.05024943 38.92654455 46.25 29.5 C43.45395524 27.20214553 40.60716466 25.11420187 37.60546875 23.09375 C35.25 21.5 35.25 21.5 33.25 19.5 C31.73937995 21.01062005 30.53355884 22.73123068 29.25 24.4375 C28.71375 25.14777344 28.1775 25.85804687 27.625 26.58984375 C24.86189738 30.42835847 24.92921491 34.03637925 24.6875 38.625 C24.62272461 39.75615234 24.62272461 39.75615234 24.55664062 40.91015625 C24.4505168 42.77321888 24.34974999 44.63658524 24.25 46.5 C17.5747966 46.52526945 10.89960543 46.54283268 4.22436523 46.55493164 C1.95157409 46.55997325 -0.3212138 46.56680637 -2.59399414 46.57543945 C-5.85303551 46.58751261 -9.11203417 46.59322987 -12.37109375 46.59765625 C-13.39400009 46.60281754 -14.41690643 46.60797882 -15.47080994 46.61329651 C-16.41170975 46.61337204 -17.35260956 46.61344757 -18.32202148 46.61352539 C-19.15475082 46.615746 -19.98748016 46.61796661 -20.84544373 46.62025452 C-22.75 46.5 -22.75 46.5 -23.75 45.5 C-23.92019112 42.22098433 -24.04698737 38.94905893 -24.09179688 35.66601562 C-24.33177861 29.62182449 -26.33284828 26.08980541 -30.5 21.625 C-30.9125 21.25375 -31.325 20.8825 -31.75 20.5 C-20.22835991 15.12870159 -20.22835991 15.12870159 -14.75 13.5 C-30.63464863 17.65704634 -44.01339869 25.55468441 -52.5 39.9375 C-57.29178763 48.35507361 -57.0574192 57.18104434 -57.05078125 66.59765625 C-57.05467611 67.95950957 -57.05901239 69.32136169 -57.06376648 70.68321228 C-57.07119149 73.52493242 -57.07096366 76.36652821 -57.06567383 79.20825195 C-57.05986958 82.83509542 -57.07685075 86.4614298 -57.1000185 90.08818913 C-57.11480216 92.8961836 -57.11562154 95.70405655 -57.11250877 98.51208305 C-57.11326572 100.49449287 -57.12709092 102.47688395 -57.14118958 104.45924377 C-57.10820581 110.89278455 -56.93317756 115.83908878 -53.75 121.5 C-57.98345479 119.98805186 -59.60664857 117.34325085 -61.75 113.5 C-62.63700889 109.36939087 -62.88436492 105.41142437 -62.91113281 101.19433594 C-62.92074036 99.96575867 -62.9303479 98.7371814 -62.94024658 97.47137451 C-62.94449646 96.15566467 -62.94874634 94.83995483 -62.953125 93.484375 C-62.95595238 92.80730751 -62.95877975 92.13024002 -62.96169281 91.43265533 C-62.97663485 87.84849159 -62.98589538 84.26436756 -62.99023438 80.68017578 C-62.99570732 77.00428112 -63.01972444 73.32875902 -63.04820633 69.6529808 C-63.0669583 66.8028461 -63.07204496 63.95279887 -63.07357025 61.10260773 C-63.07801505 59.0964985 -63.09659817 57.09043635 -63.11553955 55.08441162 C-63.07864389 39.82520717 -58.26065068 28.70250045 -47.87109375 17.52734375 C-34.90388927 5.13327538 -17.58118832 -0.1026293 0 0 Z " fill="#DCD9D9" transform="translate(99.75,30.5)"/>
<path d="M0 0 C4.2707172 2.74546106 8.23029015 5.58931014 12 9 C12 9.66 12 10.32 12 11 C12.66 11 13.32 11 14 11 C14.96462975 12.70478591 15.92141054 14.41401412 16.875 16.125 C17.40867187 17.07632813 17.94234375 18.02765625 18.4921875 19.0078125 C21.09454479 24.17207593 22.25008294 28.56734118 22.2746582 34.35327148 C22.28419022 35.59153183 22.29372223 36.82979218 22.30354309 38.10557556 C22.30328163 39.44408192 22.30234444 40.78258828 22.30078125 42.12109375 C22.30467343 43.50822578 22.30900918 44.89535663 22.31376648 46.28248596 C22.32120752 49.18323641 22.32095276 52.08386509 22.31567383 54.98461914 C22.30988039 58.68774489 22.3268169 62.39037027 22.3500185 66.09341335 C22.36480454 68.95631282 22.36562099 71.81909311 22.36250877 74.682024 C22.36301949 76.0466721 22.36821007 77.4113273 22.37832069 78.77593803 C22.46996374 92.87281688 22.46996374 92.87281688 19 98 C13.64188718 102.45401539 8.98611243 103.73562421 2.140625 103.64697266 C1.29399292 103.65573425 0.44736084 103.66449585 -0.42492676 103.67352295 C-3.20048538 103.69538096 -5.97442754 103.68101326 -8.75 103.6640625 C-10.6923859 103.66743456 -12.63476973 103.67229041 -14.57714844 103.67855835 C-18.63887717 103.68591125 -22.70005437 103.67527526 -26.76171875 103.65185547 C-31.95363266 103.62336872 -37.14425406 103.63978119 -42.33612061 103.66971779 C-46.34433635 103.68783359 -50.35224846 103.68201312 -54.36047363 103.66907883 C-56.27413081 103.66575665 -58.18781605 103.66978986 -60.10144043 103.68147659 C-62.78190543 103.69425623 -65.46031231 103.67471058 -68.140625 103.64697266 C-69.31292664 103.66215439 -69.31292664 103.66215439 -70.50891113 103.67764282 C-76.32295453 103.5668509 -80.57242747 101.82253377 -85 98 C-88.90202982 91.16891278 -88.45157486 83.97018864 -88.43359375 76.26171875 C-88.4388356 74.945168 -88.44407745 73.62861725 -88.44947815 72.27217102 C-88.45837315 69.49425621 -88.45602935 66.71662941 -88.44604492 63.9387207 C-88.4345825 60.40849672 -88.45474168 56.87927718 -88.48396206 53.34918499 C-88.50690987 49.94497999 -88.49984844 46.54099882 -88.49609375 43.13671875 C-88.50732773 41.88428879 -88.51856171 40.63185883 -88.53013611 39.34147644 C-88.42837224 26.38239662 -84.53216525 16.75325412 -76 7 C-73.53547393 4.64709196 -71.1310913 2.39451965 -68 1 C-65.02320403 1.07031801 -64.00525344 1.99534354 -61.765625 3.98046875 C-59.31637318 8.16912286 -59.55494463 11.55990086 -59.75 16.3125 C-59.76804687 17.14845703 -59.78609375 17.98441406 -59.8046875 18.84570312 C-59.85158874 20.89763228 -59.92332589 22.94896756 -60 25 C-61.42892578 25.05607422 -61.42892578 25.05607422 -62.88671875 25.11328125 C-64.76810547 25.21189453 -64.76810547 25.21189453 -66.6875 25.3125 C-67.92886719 25.37050781 -69.17023438 25.42851563 -70.44921875 25.48828125 C-74.13923835 26.02006625 -76.08929829 26.70815018 -79 29 C-80.93337479 32.09195807 -81.2596902 34.50115596 -81.29052734 38.11645508 C-81.30328705 39.13463821 -81.31604675 40.15282135 -81.32919312 41.20185852 C-81.33141876 42.29669052 -81.33364441 43.39152252 -81.3359375 44.51953125 C-81.3425943 45.65146408 -81.3492511 46.78339691 -81.35610962 47.94963074 C-81.36623338 50.34441504 -81.37092673 52.73922753 -81.37060547 55.1340332 C-81.37497121 58.78839957 -81.41127529 62.441551 -81.44921875 66.09570312 C-81.45508848 68.42447505 -81.45905683 70.75325269 -81.4609375 73.08203125 C-81.47530853 74.17079056 -81.48967957 75.25954987 -81.50448608 76.38130188 C-81.46608261 82.79496549 -80.86689598 86.80225407 -77 92 C-73.90393523 93.54803238 -70.63169028 93.15614102 -67.2331543 93.16113281 C-66.43134735 93.16609772 -65.62954041 93.17106262 -64.80343628 93.17617798 C-62.14368845 93.19081509 -59.48400028 93.19760455 -56.82421875 93.203125 C-54.97817482 93.20887566 -53.13213092 93.21463341 -51.28608704 93.22039795 C-47.41150636 93.23091268 -43.53694646 93.23675209 -39.66235352 93.24023438 C-34.69898246 93.24571674 -29.73588608 93.26973726 -24.77260113 93.29820633 C-20.95759786 93.31683711 -17.14266065 93.32203857 -13.32761574 93.32357025 C-11.49798902 93.32659687 -9.66836347 93.33462573 -7.83878136 93.34775543 C-5.27731879 93.36482342 -2.71652577 93.36293384 -0.1550293 93.35644531 C0.59996353 93.3656601 1.35495636 93.37487488 2.13282776 93.3843689 C6.59168721 93.3490136 9.51261164 92.84839398 13 90 C15.08386495 86.99690343 15.25614339 84.47144774 15.2746582 80.86767578 C15.28419022 79.84626495 15.29372223 78.82485413 15.30354309 77.77249146 C15.30263168 76.6745224 15.30172028 75.57655334 15.30078125 74.4453125 C15.30720894 72.74385574 15.30720894 72.74385574 15.31376648 71.00802612 C15.31950835 68.60903592 15.3200111 66.21002831 15.31567383 63.81103516 C15.31251796 60.14585541 15.3359617 56.48148597 15.36132812 52.81640625 C15.36360157 50.48437602 15.36430441 48.15234362 15.36328125 45.8203125 C15.372491 44.72639191 15.38170074 43.63247131 15.39118958 42.50540161 C15.35745722 36.93975464 15.22531462 32.76919501 12 28 C8.66356163 25.43004071 4.84533527 25.60251863 0.75 25.375 C-0.51328125 25.30023438 -1.7765625 25.22546875 -3.078125 25.1484375 C-4.04234375 25.09945312 -5.0065625 25.05046875 -6 25 C-7.03368414 6.91052748 -7.03368414 6.91052748 -3 2.375 C-2.01 1.59125 -1.02 0.8075 0 0 Z " fill="#DFDCDC" transform="translate(133,52)"/>
<path d="M0 0 C-0.33 1.32 -0.66 2.64 -1 4 C-3.97 4.66 -6.94 5.32 -10 6 C-7.69 7.32 -5.38 8.64 -3 10 C-3 12.31 -3 14.62 -3 17 C-2.46375 16.67 -1.9275 16.34 -1.375 16 C2.60102951 14.32588231 5.84318715 14.59763031 9.875 16 C10.57625 16.33 11.2775 16.66 12 17 C11.87625 15.9275 11.7525 14.855 11.625 13.75 C11.810625 11.89375 11.810625 11.89375 12 10 C15 7.5625 15 7.5625 18 6 C13.545 5.01 13.545 5.01 9 4 C8.505 2.02 8.505 2.02 8 0 C17.88642477 0.904905 25.98524346 2.60173889 35 7 C35 11.28535967 32.7483722 12.84942699 30 16 C28.414131 19.171738 28.62133555 22.63513822 28.4375 26.125 C28.37272461 27.25615234 28.37272461 27.25615234 28.30664062 28.41015625 C28.2005168 30.27321888 28.09974999 32.13658524 28 34 C21.3247966 34.02526945 14.64960543 34.04283268 7.97436523 34.05493164 C5.70157409 34.05997325 3.4287862 34.06680637 1.15600586 34.07543945 C-2.10303551 34.08751261 -5.36203417 34.09322987 -8.62109375 34.09765625 C-9.64400009 34.10281754 -10.66690643 34.10797882 -11.72080994 34.11329651 C-12.66170975 34.11337204 -13.60260956 34.11344757 -14.57202148 34.11352539 C-15.40475082 34.115746 -16.23748016 34.11796661 -17.09544373 34.12025452 C-19 34 -19 34 -20 33 C-20.17019112 29.72098433 -20.29698737 26.44905893 -20.34179688 23.16601562 C-20.58177861 17.12182449 -22.58284828 13.58980541 -26.75 9.125 C-27.1625 8.75375 -27.575 8.3825 -28 8 C-19.32748158 3.52214865 -9.88891851 0 0 0 Z " fill="#E0DDDD" transform="translate(96,43)"/>
<path d="M0 0 C0.66 0 1.32 0 2 0 C2.1710442 1.37446232 2.33658727 2.74960949 2.5 4.125 C2.64888672 5.35669922 2.64888672 5.35669922 2.80078125 6.61328125 C3 9 3 9 2.6875 12.3125 C2.72403888 15.30461578 2.72403888 15.30461578 5.75 17.3125 C12.5999482 20.86920387 20.59884674 21.30891441 28.0078125 19.10546875 C30.37310857 18.15193772 32.69247336 17.08589489 35 16 C35 11.05 35 6.1 35 1 C35.99 0.67 36.98 0.34 38 0 C38 3.96 38 7.92 38 12 C39.485 12.103125 40.97 12.20625 42.5 12.3125 C51.50930451 13.25017726 57.69356266 16.77386773 65 22 C62.07651242 25.28330144 59.24542505 25.95866933 55 27 C54.01 25.9171875 54.01 25.9171875 53 24.8125 C49.76840417 21.56233178 46.00509278 19.19905795 42 17 C41.67 17 41.34 17 41 17 C41.78246094 17.53109375 42.56492187 18.0621875 43.37109375 18.609375 C44.88896484 19.66898438 44.88896484 19.66898438 46.4375 20.75 C47.95150391 21.79414063 47.95150391 21.79414063 49.49609375 22.859375 C52.14069819 25.12028488 52.40399474 25.76200126 53 29 C50.31425618 29.81871381 47.6266428 30.63008988 44.9375 31.4375 C44.18533203 31.66759766 43.43316406 31.89769531 42.65820312 32.13476562 C23.86616623 37.74797145 3.37034384 35.08406886 -15 29 C-13.57876845 25.69836979 -11.87676578 23.6829618 -9.1875 21.3125 C-8.18783203 20.40951172 -8.18783203 20.40951172 -7.16796875 19.48828125 C-4.75216718 17.82986611 -2.88196185 17.37722014 0 17 C-4.28798639 17 -5.51090486 17.58583042 -9.0625 19.75 C-9.91972656 20.26046875 -10.77695313 20.7709375 -11.66015625 21.296875 C-13.99481698 22.99622739 -15.41344891 24.60716885 -17 27 C-20.77545388 25.90931332 -23.47043472 25.0916909 -26 22 C-19.68415729 16.16999134 -13.70306663 12.7612668 -4.9375 12.75 C-3.308125 12.8325 -1.67875 12.915 0 13 C0 8.71 0 4.42 0 0 Z " fill="#E0DDDD" transform="translate(81,159)"/>
<path d="M0 0 C3.30919649 1.55726894 4.91421663 4.11369949 7.125 7 C6.47273438 7.49628906 5.82046875 7.99257813 5.1484375 8.50390625 C-5.30549632 16.62960407 -13.61913807 25.4695808 -15.875 39 C-16.17433441 43.69950344 -16.17909995 48.38974127 -16.17578125 53.09765625 C-16.17967611 54.45950957 -16.18401239 55.82136169 -16.18876648 57.18321228 C-16.19619149 60.02493242 -16.19596366 62.86652821 -16.19067383 65.70825195 C-16.18486958 69.33509542 -16.20185075 72.9614298 -16.2250185 76.58818913 C-16.23980216 79.3961836 -16.24062154 82.20405655 -16.23750877 85.01208305 C-16.23826572 86.99449287 -16.25209092 88.97688395 -16.26618958 90.95924377 C-16.23320581 97.39278455 -16.05817756 102.33908878 -12.875 108 C-17.10845479 106.48805186 -18.73164857 103.84325085 -20.875 100 C-21.76200889 95.86939087 -22.00936492 91.91142437 -22.03613281 87.69433594 C-22.04574036 86.46575867 -22.0553479 85.2371814 -22.06524658 83.97137451 C-22.06949646 82.65566467 -22.07374634 81.33995483 -22.078125 79.984375 C-22.08095238 79.30730751 -22.08377975 78.63024002 -22.08669281 77.93265533 C-22.10163485 74.34849159 -22.11089538 70.76436756 -22.11523438 67.18017578 C-22.12070732 63.50428112 -22.14472444 59.82875902 -22.17320633 56.1529808 C-22.1919583 53.3028461 -22.19704496 50.45279887 -22.19857025 47.60260773 C-22.20301505 45.5964985 -22.22159817 43.59043635 -22.24053955 41.58441162 C-22.20268565 25.92890141 -17.13782403 15.33369124 -6.70703125 3.8125 C-2.85344828 0 -2.85344828 0 0 0 Z " fill="#DFDCDC" transform="translate(58.875,44)"/>
<path d="M0 0 C10.27070211 6.63257875 17.90009907 15.99654656 21.52896118 27.70697021 C22.14746763 30.71787646 22.15972348 33.58678931 22.19287109 36.66113281 C22.20104858 37.32186295 22.20922607 37.98259308 22.21765137 38.66334534 C22.24239963 40.84326291 22.25899493 43.02311579 22.2734375 45.203125 C22.27876118 45.95071831 22.28408485 46.69831161 22.28956985 47.46855927 C22.31625681 51.42645744 22.335645 55.38432458 22.35009766 59.34228516 C22.3634269 62.60721921 22.39126597 65.8715268 22.43212891 69.13623047 C22.48160145 73.08963651 22.50623606 77.04247534 22.51332474 80.99617767 C22.52001165 82.49681549 22.53516677 83.99744191 22.55921555 85.49790192 C22.79053273 100.80461754 22.79053273 100.80461754 17 107 C14.6875 109 14.6875 109 13 110 C13.309375 109.236875 13.61875 108.47375 13.9375 107.6875 C15.55068184 103.60709887 16.13620093 100.54923009 16.17700195 96.17431641 C16.18983719 94.97521637 16.20267242 93.77611633 16.21589661 92.54067993 C16.22328354 91.24077118 16.23067047 89.94086243 16.23828125 88.6015625 C16.24235678 87.93652081 16.2464323 87.27147911 16.25063133 86.58628464 C16.27149359 83.057038 16.28578703 79.5278301 16.29516602 75.99853516 C16.30615028 72.38662671 16.34045468 68.77534809 16.38033772 65.16366005 C16.40675399 62.35972108 16.41488033 59.55592541 16.41844749 56.75187302 C16.42557295 54.78408709 16.45191563 52.81640008 16.47883606 50.8487854 C16.44896527 38.28382545 13.81628662 26.39335266 5 17 C2.13340908 14.73608857 -0.77021867 12.67034355 -3.83984375 10.69140625 C-4.55269531 10.13324219 -5.26554688 9.57507812 -6 9 C-6 8.01 -6 7.02 -6 6 C-4.37064759 4.62131719 -2.70250393 3.28725907 -1 2 C-0.67 1.34 -0.34 0.68 0 0 Z " fill="#DFDBDB" transform="translate(141,43)"/>
<path d="M0 0 C1.15881935 -0.01226624 1.15881935 -0.01226624 2.34104919 -0.02478027 C4.9033836 -0.0496382 7.4656626 -0.06615113 10.02807617 -0.08056641 C10.90260626 -0.08589008 11.77713634 -0.09121376 12.67816734 -0.09669876 C17.30692036 -0.12343193 21.93564638 -0.14280638 26.56445312 -0.15722656 C31.34641795 -0.17387608 36.1276938 -0.21865551 40.90939808 -0.26959801 C44.58543188 -0.30324743 48.26130167 -0.31480142 51.9374752 -0.32045364 C53.70015415 -0.32717241 55.46282207 -0.34241078 57.22535133 -0.36634445 C59.69377474 -0.3979513 62.16033376 -0.39804029 64.62890625 -0.390625 C65.35584686 -0.40703033 66.08278748 -0.42343567 66.83175659 -0.44033813 C70.62811014 -0.39369926 72.39340702 0.10657329 75.46157837 2.40621948 C77.67895437 5.42485913 78.13562518 6.68229563 78.13964844 10.36279297 C78.15218155 11.36733521 78.16471466 12.37187744 78.17762756 13.40686035 C78.16436935 14.4809314 78.15111115 15.55500244 78.13745117 16.66162109 C78.13986313 17.77468628 78.14227509 18.88775146 78.14476013 20.0345459 C78.14378189 22.38472054 78.13039393 24.73491827 78.10546875 27.08496094 C78.07116466 30.6803218 78.08481197 34.27322426 78.10424805 37.86865234 C78.09734945 40.15381905 78.08767696 42.43897941 78.07495117 44.72412109 C78.08239098 46.33522766 78.08239098 46.33522766 78.08998108 47.97888184 C78.07414474 48.98342407 78.05830841 49.98796631 78.04199219 51.02294922 C78.03579361 51.90277466 78.02959503 52.7826001 78.02320862 53.68908691 C77.30006686 57.20709472 76.17504195 58.78434196 73.50854492 61.19287109 C70.70482222 61.69824002 68.5012794 61.87843324 65.69824219 61.83984375 C64.5243544 61.85298615 64.5243544 61.85298615 63.32675171 61.86639404 C60.74225251 61.88838332 58.15946747 61.87383681 55.57495117 61.85693359 C53.77660291 61.86030223 51.97825686 61.86515525 50.17991638 61.87142944 C46.41122762 61.87880038 42.64313155 61.86808971 38.87451172 61.84472656 C34.04759996 61.8162588 29.2220794 61.83262814 24.39521885 61.86258888 C20.68134619 61.88067359 16.96780227 61.87489817 13.2539196 61.86194992 C11.47454602 61.85861807 9.69514245 61.86269524 7.91580391 61.87434769 C5.42581525 61.88707397 2.93806449 61.86765656 0.44824219 61.83984375 C-0.6514817 61.85502548 -0.6514817 61.85502548 -1.77342224 61.87051392 C-5.57951284 61.79190352 -7.37632009 61.27940602 -10.44923401 58.96981812 C-12.64779752 55.98028163 -13.11537173 54.75789649 -13.10668945 51.11474609 C-13.12064758 49.63796387 -13.12064758 49.63796387 -13.1348877 48.13134766 C-13.11849243 47.07915039 -13.10209717 46.02695313 -13.08520508 44.94287109 C-13.0852655 43.30656738 -13.0852655 43.30656738 -13.08532715 41.63720703 C-13.07997297 39.33408843 -13.06239487 37.03097024 -13.03344727 34.72802734 C-12.99160299 31.20532314 -12.99237921 27.68453187 -12.99926758 24.16162109 C-12.98877448 21.92202449 -12.97583573 19.68243773 -12.96020508 17.44287109 C-12.96000366 16.39067383 -12.95980225 15.33847656 -12.95959473 14.25439453 C-12.81100992 5.06094479 -12.81100992 5.06094479 -9.49145508 1.19287109 C-6.4649565 -0.32037819 -3.32154156 0.01930333 0 0 Z M-8.43301392 3.40522766 C-9.83653382 5.77568833 -9.87225974 7.41504505 -9.87963867 10.16748047 C-9.89382339 11.68420349 -9.89382339 11.68420349 -9.90829468 13.23156738 C-9.90222198 14.32223511 -9.89614929 15.41290283 -9.88989258 16.53662109 C-9.89276276 17.65725952 -9.89563293 18.77789795 -9.89859009 19.93249512 C-9.90063255 22.30298365 -9.89509007 24.67348897 -9.88256836 27.04394531 C-9.86651808 30.67860493 -9.88241177 34.31215244 -9.90161133 37.94677734 C-9.89962893 40.24756106 -9.89578533 42.54834407 -9.88989258 44.84912109 C-9.89596527 45.93978882 -9.90203796 47.03045654 -9.90829468 48.1541748 C-9.8988382 49.16532349 -9.88938171 50.17647217 -9.87963867 51.21826172 C-9.87725189 52.10856079 -9.87486511 52.99885986 -9.87240601 53.9161377 C-9.63092727 56.20435773 -9.63092727 56.20435773 -8.42727661 57.98150635 C-5.47129264 59.83125061 -2.50835817 59.5935028 0.86987305 59.54931641 C1.61651718 59.55136078 2.36316132 59.55340515 3.13243103 59.55551147 C5.60180104 59.55852087 8.07050421 59.54003755 10.53979492 59.52099609 C12.25467768 59.5179385 13.96956292 59.51606238 15.68444824 59.51531982 C19.27906799 59.5107157 22.87346384 59.49628606 26.46801758 59.47412109 C31.07835345 59.4458387 35.68851293 59.43490961 40.29892731 59.430439 C43.84020761 59.42628407 47.38145217 59.41646596 50.92271423 59.4045639 C52.62279474 59.398862 54.32287867 59.39410303 56.02296448 59.39029694 C58.39777673 59.38342986 60.7724492 59.36979522 63.1472168 59.35400391 C63.8517247 59.35288605 64.5562326 59.35176819 65.28208923 59.35061646 C68.30215202 59.3239906 70.61841737 59.15624694 73.50854492 58.19287109 C74.75270618 55.70454858 74.64886432 54.0080841 74.66967773 51.22412109 C74.67928528 50.18964844 74.68889282 49.15517578 74.6987915 48.08935547 C74.70304138 46.96851563 74.70729126 45.84767578 74.71166992 44.69287109 C74.71737 43.54625 74.72307007 42.39962891 74.72894287 41.21826172 C74.73840036 38.79053676 74.74492981 36.36279892 74.7487793 33.93505859 C74.75850473 30.20827083 74.78952984 26.48202978 74.82104492 22.75537109 C74.8275727 20.40120772 74.83282405 18.04704038 74.83666992 15.69287109 C74.85519012 14.01161133 74.85519012 14.01161133 74.87408447 12.29638672 C74.87108337 11.26191406 74.86808228 10.22744141 74.86499023 9.16162109 C74.86863586 8.24832031 74.87228149 7.33501953 74.8760376 6.39404297 C74.75476501 5.66765625 74.63349243 4.94126953 74.50854492 4.19287109 C70.88718985 1.77863438 68.23952785 1.90369212 64.05541992 1.91821289 C63.29902222 1.91310196 62.54262451 1.90799103 61.76330566 1.90272522 C59.2616384 1.88881862 56.76024625 1.88978657 54.25854492 1.89208984 C52.52123919 1.88820388 50.7839344 1.88386942 49.04663086 1.87910461 C45.40499796 1.8716404 41.76346202 1.87193541 38.12182617 1.87719727 C33.45083495 1.88299633 28.78023969 1.86605149 24.10931396 1.84285259 C20.52170484 1.82813579 16.93419157 1.82724067 13.34655762 1.83036232 C11.62413752 1.82984821 9.90171218 1.82459366 8.17932129 1.8145504 C5.77317395 1.80224096 3.36780441 1.80894371 0.96166992 1.82055664 C0.24781128 1.8129129 -0.46604736 1.80526917 -1.20153809 1.7973938 C-3.99845198 1.82729572 -6.02831582 1.90367567 -8.43301392 3.40522766 Z " fill="#E3DFDF" transform="translate(67.491455078125,80.80712890625)"/>
<path d="M0 0 C6.75 0.75 6.75 0.75 9 3 C7.68 3 6.36 3 5 3 C8.76435592 5.49055871 11.86617377 5.03090984 16.25 4.625 C18.14492187 4.45871094 18.14492187 4.45871094 20.078125 4.2890625 C21.52445313 4.14597656 21.52445313 4.14597656 23 4 C22.67 3.01 22.34 2.02 22 1 C25.3 0.67 28.6 0.34 32 0 C31.01 1.485 31.01 1.485 30 3 C30.66 3.66 31.32 4.32 32 5 C31.34 5.66 30.68 6.32 30 7 C30 7.99 30 8.98 30 10 C24.79826905 10.86809439 19.83021184 11.12515348 14.5625 11.0625 C13.83095703 11.05798828 13.09941406 11.05347656 12.34570312 11.04882812 C10.56376581 11.03718148 8.78187137 11.01925191 7 11 C9.8424854 12.57273568 9.8424854 12.57273568 13 13 C14.10988281 13.01740234 14.10988281 13.01740234 15.2421875 13.03515625 C16.54542969 13.04869141 16.54542969 13.04869141 17.875 13.0625 C19.17050781 13.07990234 19.17050781 13.07990234 20.4921875 13.09765625 C23.68146295 12.97346328 26.15030104 12.42484948 29 11 C31 13 31 13 32 16 C29.40282608 19.17432368 26.9729485 20.09388894 23 21 C15.044139 21.64900132 8.12883753 21.38785598 1.296875 16.875 C-0.75026038 13.9152862 -0.31343411 10.77084441 -0.1875 7.3125 C-0.17396484 6.61060547 -0.16042969 5.90871094 -0.14648438 5.18554688 C-0.11120182 3.45670171 -0.05739583 1.72825235 0 0 Z " fill="#686162" transform="translate(83,159)"/>
<path d="M0 0 C3.33048034 0.05842948 5.57118839 0.37157134 8.3125 2.3125 C11.544685 6.27192663 12.19819909 9.32417863 11.8125 14.375 C10.48495998 17.96716711 9.22063899 19.09672342 6.0625 21.25 C2.04861411 22.63942204 -0.11465094 22.55982882 -4.1875 21.375 C-7.0625 18.875 -7.0625 18.875 -9.1875 16.375 C-9.5175 16.045 -9.8475 15.715 -10.1875 15.375 C-10.62916754 12.32118444 -10.66973087 9.42394358 -10.1875 6.375 C-7.75 3.375 -7.75 3.375 -5.1875 1.375 C-3.63766739 -0.17483261 -2.15081622 0.09367039 0 0 Z " fill="#DFDCDC" transform="translate(123.1875,103.625)"/>
<path d="M0 0 C3.89428305 0.01860326 4.55443387 0.21610252 7.75 2.8125 C8.41 3.658125 9.07 4.50375 9.75 5.375 C10.08 5.705 10.41 6.035 10.75 6.375 C11.41814301 10.90882759 11.51591603 15.06026346 8.75 18.875 C5.08992801 21.92505999 2.47639215 22.7968281 -2.25 22.375 C-5.91630514 20.8270045 -8.46110971 18.95278059 -10.25 15.375 C-10.78054504 12.26752188 -10.86314149 9.47385024 -10.25 6.375 C-7.8125 3.375 -7.8125 3.375 -5.25 1.375 C-3.69049449 -0.18450551 -2.16122869 0.09303302 0 0 Z " fill="#E0DDDD" transform="translate(76.25,103.625)"/>
<path d="M0 0 C5.94092966 1.92206548 9.84070867 4.95191865 12.875 10.3125 C14.66783018 16.18899894 14.87651949 20.61926414 12.375 26.1875 C9.85914455 30.71960839 6.64227352 34.09606432 1.625 35.8125 C1.08875 35.874375 0.5525 35.93625 0 36 C1.15173355 33.53199953 2.04783565 31.95216435 4 30 C2.02 30.99 2.02 30.99 0 32 C0 23.42 0 14.84 0 6 C2.475 7.485 2.475 7.485 5 9 C4.175 8.2575 3.35 7.515 2.5 6.75 C0 4 0 4 0 0 Z " fill="#DDD9D9" transform="translate(165,90)"/>
<path d="M0 0 C-0.4793247 4.31392226 -1.7457985 6.16569547 -5 9 C-4 8 -4 8 0 6 C0 14.25 0 22.5 0 31 C-2 30 -4 29 -6 28 C-5.195625 28.763125 -4.39125 29.52625 -3.5625 30.3125 C-1 33 -1 33 0 36 C-5.59113983 34.56970842 -8.98628754 32.16237943 -12.109375 27.2578125 C-14.13247918 22.12906594 -13.6913425 16.38044814 -13 11 C-10.72646793 5.95868977 -6.01678111 0 0 0 Z " fill="#DDDADA" transform="translate(35,90)"/>
<path d="M0 0 C0.66 0 1.32 0 2 0 C2.680625 1.670625 2.680625 1.670625 3.375 3.375 C4.84360299 6.02813314 5.60283195 6.85495273 8.4921875 7.91015625 C10.99602577 8.38893552 13.46245001 8.76271002 16 9 C14.06745228 11.0245738 12.36841312 12.42105792 10 14 C9.26393501 17.56769552 9.26393501 17.56769552 9 21 C8.26394531 20.90460937 7.52789062 20.80921875 6.76953125 20.7109375 C5.30580078 20.54464844 5.30580078 20.54464844 3.8125 20.375 C2.84957031 20.25898437 1.88664062 20.14296875 0.89453125 20.0234375 C-2.24075323 19.99805058 -4.19486535 20.65640717 -7 22 C-7 19.36 -7 16.72 -7 14 C-10.465 12.02 -10.465 12.02 -14 10 C-14 9.67 -14 9.34 -14 9 C-13.32453125 8.93683594 -12.6490625 8.87367187 -11.953125 8.80859375 C-6.6568537 8.22838874 -6.6568537 8.22838874 -2.4453125 5.30859375 C-1.21982028 3.18470931 -1.21982028 3.18470931 0 0 Z " fill="#443D3F" transform="translate(99,39)"/>
<path d="M0 0 C0.33 0 0.66 0 1 0 C1.00586624 0.6403569 1.01173248 1.28071381 1.01777649 1.94047546 C1.08173193 8.60798718 1.16615759 15.2750172 1.26245117 21.94213867 C1.29569657 24.43002978 1.32372966 26.91799624 1.34643555 29.40600586 C1.3799877 32.98323668 1.43230592 36.55977719 1.48828125 40.13671875 C1.49467117 41.24834885 1.5010611 42.35997894 1.50764465 43.5052948 C1.52743881 44.54599625 1.54723297 45.58669769 1.56762695 46.65893555 C1.57873001 47.5716069 1.58983307 48.48427826 1.60127258 49.42460632 C2.07754841 52.50088775 3.2629446 54.44545807 5 57 C1.34683329 55.75023244 0.21934164 55.32901247 -2 52 C-2.25396729 49.75450134 -2.25396729 49.75450134 -2.25878906 47.10131836 C-2.26509338 46.10696274 -2.27139771 45.11260712 -2.27789307 44.08811951 C-2.2738446 43.01618851 -2.26979614 41.94425751 -2.265625 40.83984375 C-2.26753845 39.73902969 -2.2694519 38.63821564 -2.27142334 37.50404358 C-2.27278479 35.17644014 -2.26909113 32.8488291 -2.26074219 30.52124023 C-2.25003217 26.94823253 -2.2606443 23.37572649 -2.2734375 19.80273438 C-2.2721161 17.54426972 -2.26955411 15.28580538 -2.265625 13.02734375 C-2.27169769 11.4164109 -2.27169769 11.4164109 -2.27789307 9.77293396 C-2.27158875 8.7817305 -2.26528442 7.79052704 -2.25878906 6.76928711 C-2.25719788 5.89453232 -2.25560669 5.01977753 -2.25396729 4.11851501 C-2 2 -2 2 0 0 Z " fill="#BCB7B7" transform="translate(57,85)"/>
<path d="M0 0 C1.98 0 3.96 0 6 0 C6 0.99 6 1.98 6 3 C6.680625 3.20625 7.36125 3.4125 8.0625 3.625 C16.70421642 7.67005875 22.86672676 15.60407357 26.328125 24.359375 C27.92651675 29.33465072 29.24305599 33.74026833 29 39 C28.67 39 28.34 39 28 39 C27.67 43.95 27.34 48.9 27 54 C26.67 54 26.34 54 26 54 C25.98598145 53.03344482 25.98598145 53.03344482 25.97167969 52.04736328 C25.91734956 49.07252233 25.83383021 46.09915023 25.75 43.125 C25.73582031 42.11179688 25.72164062 41.09859375 25.70703125 40.0546875 C25.41152811 30.83498956 22.86840537 23.7894486 18 16 C18 15.34 18 14.68 18 14 C17.34 14 16.68 14 16 14 C14.31002677 12.35697047 12.64783606 10.68528688 11 9 C9.03352262 7.28800793 7.02259067 5.64629473 5 4 C4.195625 4.804375 3.39125 5.60875 2.5625 6.4375 C1.375 7.625 0.1875 8.8125 -1 10 C-1.23192865 11.51469448 -1.41215238 13.03754562 -1.5625 14.5625 C-1.64628906 15.38878906 -1.73007813 16.21507813 -1.81640625 17.06640625 C-1.87699219 17.70449219 -1.93757813 18.34257813 -2 19 C-2.99 19 -3.98 19 -5 19 C-5.46106127 13.23673414 -4.53286534 10.54225544 -1 6 C-0.4225 5.21625 0.155 4.4325 0.75 3.625 C1.1625 3.08875 1.575 2.5525 2 2 C1.34 1.34 0.68 0.68 0 0 Z " fill="#585153" transform="translate(129,49)"/>
<path d="M0 0 C6.75 0.75 6.75 0.75 9 3 C7.68 3 6.36 3 5 3 C8.76435592 5.49055871 11.86617377 5.03090984 16.25 4.625 C18.14492187 4.45871094 18.14492187 4.45871094 20.078125 4.2890625 C21.52445313 4.14597656 21.52445313 4.14597656 23 4 C22.67 3.01 22.34 2.02 22 1 C25.3 0.67 28.6 0.34 32 0 C31.01 1.485 31.01 1.485 30 3 C30.66 3.66 31.32 4.32 32 5 C31.34 5.66 30.68 6.32 30 7 C30 7.99 30 8.98 30 10 C23.5510809 11.31909709 17.51244208 10.69508823 11 10 C11 9.67 11 9.34 11 9 C15.62 9 20.24 9 25 9 C23.05606523 6.60168964 23.05606523 6.60168964 19.48046875 6.875 C17.32907387 6.92303114 15.17979713 7.00027884 13.02929688 7.078125 C8.86013283 7.17068738 5.74572514 6.88390105 2 5 C2 4.01 2 3.02 2 2 C1.34 2 0.68 2 0 2 C0 1.34 0 0.68 0 0 Z " fill="#888283" transform="translate(83,159)"/>
<path d="M0 0 C0.33 0 0.66 0 1 0 C1.10146163 7.17150787 1.17149156 14.34283049 1.21972656 21.51489258 C1.23983564 23.95441607 1.26712683 26.3938914 1.30175781 28.83325195 C1.35030489 32.34077848 1.37297632 35.84766743 1.390625 39.35546875 C1.41127014 40.44522507 1.43191528 41.53498138 1.45318604 42.65776062 C1.45542627 50.22606803 1.45542627 50.22606803 -0.89941406 54.2277832 C-3 56 -3 56 -5 56 C-5.495 54.515 -5.495 54.515 -6 53 C-5.01 53 -4.02 53 -3 53 C-2.99191315 52.36550934 -2.98382629 51.73101868 -2.97549438 51.07730103 C-2.88963817 44.49142936 -2.79014361 37.90586529 -2.68261719 31.3203125 C-2.64426238 28.86040398 -2.60942116 26.40043813 -2.578125 23.94042969 C-2.53261549 20.41059837 -2.47459802 16.88116405 -2.4140625 13.3515625 C-2.40251129 12.24632233 -2.39096008 11.14108215 -2.37905884 10.00234985 C-2.35918915 8.98144257 -2.33931946 7.96053528 -2.31884766 6.90869141 C-2.30552399 6.00712311 -2.29220032 5.10555481 -2.2784729 4.17666626 C-2 2 -2 2 0 0 Z " fill="#A6A0A1" transform="translate(144,86)"/>
<path d="M0 0 C0.66 0.33 1.32 0.66 2 1 C2 5.95 2 10.9 2 16 C1.01 16 0.02 16 -1 16 C-1.66 14.68 -2.32 13.36 -3 12 C-3.53367187 12.32871094 -4.06734375 12.65742188 -4.6171875 12.99609375 C-7.60793044 14.25612807 -9.8921206 14.16178991 -13.125 14.0625 C-17.21805369 13.80849804 -17.21805369 13.80849804 -21 15 C-23.125 14.0625 -23.125 14.0625 -25 13 C-25 12.34 -25 11.68 -25 11 C-20.40021534 9.45072527 -15.53712236 9.98569826 -10.75585938 10.12695312 C-6.93104925 10.18732617 -5.26664029 10.1777602 -2 8 C-2.66 7.34 -3.32 6.68 -4 6 C-3.34 5.34 -2.68 4.68 -2 4 C-2.33 3.34 -2.66 2.68 -3 2 C-2.01 1.34 -1.02 0.68 0 0 Z " fill="#534C4D" transform="translate(115,159)"/>
<path d="M0 0 C-4.15217568 2.24038256 -8.53882619 3.50074598 -13.02734375 4.90234375 C-15.95177263 5.982192 -18.38788079 7.31150305 -21 9 C-20.21625 9.763125 -19.4325 10.52625 -18.625 11.3125 C-14 16.04761905 -14 16.04761905 -14 20 C-14.66 20 -15.32 20 -16 20 C-16 22.97 -16 25.94 -16 29 C-16.33 29 -16.66 29 -17 29 C-17.03867188 27.67935547 -17.03867188 27.67935547 -17.078125 26.33203125 C-17.13484375 25.17058594 -17.1915625 24.00914063 -17.25 22.8125 C-17.29640625 21.66394531 -17.3428125 20.51539062 -17.390625 19.33203125 C-18.08826 15.51739886 -19.37251591 13.79038811 -22 11 C-26.40114397 11.50298788 -28.71195019 13.08772731 -32 16 C-32 13 -32 13 -30.63671875 11.5703125 C-21.9588989 5.1358569 -11.12727011 -0.69545438 0 0 Z " fill="#696264" transform="translate(90,43)"/>
<path d="M0 0 C0.66 0 1.32 0 2 0 C2 0.99 2 1.98 2 3 C9.36487404 3.99862699 16.57313685 4.10331031 24 4 C24.66 5.32 25.32 6.64 26 8 C23.06225537 8.05390357 20.12549768 8.0936255 17.1875 8.125 C16.35412109 8.14175781 15.52074219 8.15851563 14.66210938 8.17578125 C13.85966797 8.18222656 13.05722656 8.18867188 12.23046875 8.1953125 C11.12288208 8.21102295 11.12288208 8.21102295 9.99291992 8.22705078 C8 8 8 8 5 6 C4.34 6.66 3.68 7.32 3 8 C2.34 8.66 1.68 9.32 1 10 C-0.04005702 6.61981469 -0.08004482 3.5219721 0 0 Z " fill="#494143" transform="translate(83,161)"/>
<path d="M0 0 C6.75 0.875 6.75 0.875 9 2 C10.87379605 2.07033769 12.75001102 2.0843022 14.625 2.0625 C15.62789062 2.05347656 16.63078125 2.04445312 17.6640625 2.03515625 C18.82035156 2.01775391 18.82035156 2.01775391 20 2 C20.33 2.99 20.66 3.98 21 5 C12.585 5.495 12.585 5.495 4 6 C4 5.34 4 4.68 4 4 C2.68 3.67 1.36 3.34 0 3 C0.99 2.67 1.98 2.34 3 2 C2.01 1.34 1.02 0.68 0 0 Z " fill="#575051" transform="translate(87,159)"/>
<path d="M0 0 C0.66 0.33 1.32 0.66 2 1 C1.62488281 1.46148437 1.24976563 1.92296875 0.86328125 2.3984375 C-3.23226526 7.61845396 -6.18741549 13.00797213 -9 19 C-9.66303114 20.33514491 -10.32845383 21.6691176 -11 23 C-11.66 23 -12.32 23 -13 23 C-10.64996351 13.59985404 -6.6665969 7.04112482 0 0 Z " fill="#4E4749" transform="translate(56,58)"/>
<path d="M0 0 C0.33 0 0.66 0 1 0 C1.16754147 4.09317863 1.32810824 8.18656495 1.48217773 12.28027344 C1.53559149 13.67325222 1.59092043 15.06615893 1.64819336 16.45898438 C1.73012069 18.45943602 1.80462098 20.4601875 1.87890625 22.4609375 C1.9260376 23.66540527 1.97316895 24.86987305 2.02172852 26.11083984 C2 29 2 29 1 31 C-1 30 -1 30 -2 27 C-3.62652316 25.29413425 -5.29006566 23.6222454 -7 22 C-6.67 21.34 -6.34 20.68 -6 20 C-4.02 21.65 -2.04 23.3 0 25 C0 16.75 0 8.5 0 0 Z " fill="#635D5F" transform="translate(35,96)"/>
<path d="M0 0 C1.03125 -0.01417969 2.0625 -0.02835938 3.125 -0.04296875 C5.96545203 0.18473053 7.59107948 0.72245939 10 2.1875 C8 4.1875 8 4.1875 5.25 4.34765625 C3.64125 4.29931641 3.64125 4.29931641 2 4.25 C-2.1560294 3.98951899 -2.1560294 3.98951899 -6 5.1875 C-8.125 4.25 -8.125 4.25 -10 3.1875 C-10 2.5275 -10 1.8675 -10 1.1875 C-6.63007987 0.17490381 -3.51102519 0.02194391 0 0 Z " fill="#433B3D" transform="translate(100,168.8125)"/>
<path d="M0 0 C0.33 0.66 0.66 1.32 1 2 C3.52733235 2.65555119 3.52733235 2.65555119 6 3 C4.68 3.33 3.36 3.66 2 4 C3.32 4.66 4.64 5.32 6 6 C6 6.66 6 7.32 6 8 C2.7 7.67 -0.6 7.34 -4 7 C-4 4 -4 4 -2 1.8125 C-1.34 1.214375 -0.68 0.61625 0 0 Z " fill="#938D8E" transform="translate(88,166)"/>
<path d="M0 0 C0.33 0.66 0.66 1.32 1 2 C-1.72542267 3.36271133 -3.96087274 3.16923601 -7 3.1875 C-8.0725 3.20167969 -9.145 3.21585938 -10.25 3.23046875 C-13 3 -13 3 -15 1 C-12.87630763 0.63807496 -10.7509887 0.28568253 -8.625 -0.0625 C-6.84996094 -0.35833984 -6.84996094 -0.35833984 -5.0390625 -0.66015625 C-2 -1 -2 -1 0 0 Z " fill="#514A4C" transform="translate(107,177)"/>
<path d="M0 0 C4.29 0 8.58 0 13 0 C13.66 1.32 14.32 2.64 15 4 C9.72 3.67 4.44 3.34 -1 3 C-0.67 2.01 -0.34 1.02 0 0 Z " fill="#41393B" transform="translate(94,165)"/>
<path d="M0 0 C0.33 0.66 0.66 1.32 1 2 C-0.19625 2.556875 -1.3925 3.11375 -2.625 3.6875 C-5.52122229 5.12020571 -7.93625066 6.6311856 -10.375 8.75 C-13 11 -13 11 -15 11 C-13.52794396 7.16600092 -11.58125389 5.82247836 -8.0625 3.8125 C-7.18722656 3.30332031 -6.31195313 2.79414063 -5.41015625 2.26953125 C-3 1 -3 1 0 0 Z " fill="#585153" transform="translate(80,174)"/>
<path d="M0 0 C6.75 0.75 6.75 0.75 9 3 C7.68 3 6.36 3 5 3 C8.13498292 4.85776765 10.37471432 5.20140476 14 5 C11 7 11 7 7.4375 6.6875 C4 6 4 6 2 5 C2 4.01 2 3.02 2 2 C1.34 2 0.68 2 0 2 C0 1.34 0 0.68 0 0 Z " fill="#948F90" transform="translate(83,159)"/>
<path d="M0 0 C0.66 0 1.32 0 2 0 C2.05406122 1.93719378 2.09282025 3.87481921 2.125 5.8125 C2.14820312 6.89144531 2.17140625 7.97039062 2.1953125 9.08203125 C2 12 2 12 0 15 C-0.77026643 10.28211812 -1.19130096 5.78252409 -1 1 C-0.67 0.67 -0.34 0.34 0 0 Z " fill="#CECACA" transform="translate(117,159)"/>
<path d="M0 0 C0.66 0 1.32 0 2 0 C2.24954005 1.43410368 2.47392642 2.87260072 2.6875 4.3125 C2.87892578 5.51326172 2.87892578 5.51326172 3.07421875 6.73828125 C3 9 3 9 0 12 C0 8.04 0 4.08 0 0 Z " fill="#D6D2D2" transform="translate(81,159)"/>
<path d="M0 0 C2.64 0.33 5.28 0.66 8 1 C7.01 2.485 7.01 2.485 6 4 C6.66 4.66 7.32 5.32 8 6 C5.21788056 5.62403791 3.4120716 5.32681541 1.1875 3.5625 C0 2 0 2 0 0 Z " fill="#595253" transform="translate(83,172)"/>
<path d="M0 0 C1.6274637 0.61855631 3.25190356 1.24507305 4.875 1.875 C5.77992187 2.22304687 6.68484375 2.57109375 7.6171875 2.9296875 C10 4 10 4 12 6 C11.67 6.99 11.34 7.98 11 9 C10.45730469 8.57847656 9.91460937 8.15695313 9.35546875 7.72265625 C8.64003906 7.17480469 7.92460938 6.62695312 7.1875 6.0625 C6.47980469 5.51722656 5.77210937 4.97195312 5.04296875 4.41015625 C2.95874948 2.83143752 2.95874948 2.83143752 0 2 C0 1.34 0 0.68 0 0 Z " fill="#5F5759" transform="translate(119,174)"/>
<path d="M0 0 C-0.33 0.99 -0.66 1.98 -1 3 C-3.0625 3.6875 -3.0625 3.6875 -5 4 C-5.99 2.68 -6.98 1.36 -8 0 C-5.13822943 -1.43088528 -3.06624227 -0.59991697 0 0 Z " fill="#979293" transform="translate(95,175)"/>
<path d="M0 0 C2.69082872 0.17635452 5.32851446 0.61835921 8 1 C8 1.99 8 2.98 8 4 C4.65626525 3.44271087 1.96687001 2.64826111 -1 1 C-0.67 0.67 -0.34 0.34 0 0 Z " fill="#676062" transform="translate(86,165)"/>
<path d="M0 0 C-1.97420135 2.52259061 -2.96745642 2.9929808 -6.1875 3.6875 C-7.5796875 3.8421875 -7.5796875 3.8421875 -9 4 C-9.33 3.01 -9.66 2.02 -10 1 C-6.61981469 -0.04005702 -3.5219721 -0.08004482 0 0 Z " fill="#969091" transform="translate(115,159)"/>
<path d="M0 0 C2.62187494 1.04874998 3.79371361 1.64931313 5.25 4.125 C5.4975 4.74375 5.745 5.3625 6 6 C3.5625 5.25 3.5625 5.25 1 4 C0.1875 1.875 0.1875 1.875 0 0 Z " fill="#CCC8C9" transform="translate(56,136)"/>
<path d="M0 0 C0.66 0 1.32 0 2 0 C1.75 1.875 1.75 1.875 1 4 C-1.0625 5.25 -1.0625 5.25 -3 6 C-3.33 5.01 -3.66 4.02 -4 3 C-3.01 3 -2.02 3 -1 3 C-0.67 2.01 -0.34 1.02 0 0 Z " fill="#C8C4C4" transform="translate(142,136)"/>
<path d="M0 0 C0.99 0.33 1.98 0.66 3 1 C2.67 1.99 2.34 2.98 2 4 C0.02 4 -1.96 4 -4 4 C-3.34 3.67 -2.68 3.34 -2 3 C-2 2.34 -2 1.68 -2 1 C-1.34 0.67 -0.68 0.34 0 0 Z " fill="#959091" transform="translate(112,173)"/>
</svg>
